<svg fill="none" xmlns="http://www.w3.org/2000/svg">
<path d="M5.25 25.7318C4.78333 25.7318 4.375 25.5568 4.025 25.2068C3.675 24.8568 3.5 24.4484 3.5 23.9818V5.89844C3.5 5.43177 3.675 5.02344 4.025 4.67344C4.375 4.32344 4.78333 4.14844 5.25 4.14844H7.14583V2.39844H9.04167V4.14844H18.9583V2.39844H20.8542V4.14844H22.75C23.2167 4.14844 23.625 4.32344 23.975 4.67344C24.325 5.02344 24.5 5.43177 24.5 5.89844V23.9818C24.5 24.4484 24.325 24.8568 23.975 25.2068C23.625 25.5568 23.2167 25.7318 22.75 25.7318H5.25ZM5.25 23.9818H22.75V11.4401H5.25V23.9818ZM5.25 9.6901H22.75V5.89844H5.25V9.6901ZM14 16.3984C13.6694 16.3984 13.3924 16.2866 13.1687 16.063C12.9451 15.8394 12.8333 15.5623 12.8333 15.2318C12.8333 14.9012 12.9451 14.6241 13.1687 14.4005C13.3924 14.1769 13.6694 14.0651 14 14.0651C14.3306 14.0651 14.6076 14.1769 14.8312 14.4005C15.0549 14.6241 15.1667 14.9012 15.1667 15.2318C15.1667 15.5623 15.0549 15.8394 14.8312 16.063C14.6076 16.2866 14.3306 16.3984 14 16.3984ZM9.33333 16.3984C9.00278 16.3984 8.72569 16.2866 8.50208 16.063C8.27847 15.8394 8.16667 15.5623 8.16667 15.2318C8.16667 14.9012 8.27847 14.6241 8.50208 14.4005C8.72569 14.1769 9.00278 14.0651 9.33333 14.0651C9.66389 14.0651 9.94097 14.1769 10.1646 14.4005C10.3882 14.6241 10.5 14.9012 10.5 15.2318C10.5 15.5623 10.3882 15.8394 10.1646 16.063C9.94097 16.2866 9.66389 16.3984 9.33333 16.3984ZM18.6667 16.3984C18.3361 16.3984 18.059 16.2866 17.8354 16.063C17.6118 15.8394 17.5 15.5623 17.5 15.2318C17.5 14.9012 17.6118 14.6241 17.8354 14.4005C18.059 14.1769 18.3361 14.0651 18.6667 14.0651C18.9972 14.0651 19.2743 14.1769 19.4979 14.4005C19.7215 14.6241 19.8333 14.9012 19.8333 15.2318C19.8333 15.5623 19.7215 15.8394 19.4979 16.063C19.2743 16.2866 18.9972 16.3984 18.6667 16.3984ZM14 21.0651C13.6694 21.0651 13.3924 20.9533 13.1687 20.7297C12.9451 20.5061 12.8333 20.229 12.8333 19.8984C12.8333 19.5679 12.9451 19.2908 13.1687 19.0672C13.3924 18.8436 13.6694 18.7318 14 18.7318C14.3306 18.7318 14.6076 18.8436 14.8312 19.0672C15.0549 19.2908 15.1667 19.5679 15.1667 19.8984C15.1667 20.229 15.0549 20.5061 14.8312 20.7297C14.6076 20.9533 14.3306 21.0651 14 21.0651ZM9.33333 21.0651C9.00278 21.0651 8.72569 20.9533 8.50208 20.7297C8.27847 20.5061 8.16667 20.229 8.16667 19.8984C8.16667 19.5679 8.27847 19.2908 8.50208 19.0672C8.72569 18.8436 9.00278 18.7318 9.33333 18.7318C9.66389 18.7318 9.94097 18.8436 10.1646 19.0672C10.3882 19.2908 10.5 19.5679 10.5 19.8984C10.5 20.229 10.3882 20.5061 10.1646 20.7297C9.94097 20.9533 9.66389 21.0651 9.33333 21.0651ZM18.6667 21.0651C18.3361 21.0651 18.059 20.9533 17.8354 20.7297C17.6118 20.5061 17.5 20.229 17.5 19.8984C17.5 19.5679 17.6118 19.2908 17.8354 19.0672C18.059 18.8436 18.3361 18.7318 18.6667 18.7318C18.9972 18.7318 19.2743 18.8436 19.4979 19.0672C19.7215 19.2908 19.8333 19.5679 19.8333 19.8984C19.8333 20.229 19.7215 20.5061 19.4979 20.7297C19.2743 20.9533 18.9972 21.0651 18.6667 21.0651Z" fill="#514EDD"/>
</svg>
