<svg width="28" height="29" viewBox="0 0 28 29" fill="none" xmlns="http://www.w3.org/2000/svg">
<path d="M13.9993 18.4408C15.3799 18.4408 16.5514 17.9595 17.5139 16.997C18.4764 16.0345 18.9577 14.863 18.9577 13.4824C18.9577 12.1019 18.4764 10.9303 17.5139 9.96784C16.5514 9.00534 15.3799 8.52409 13.9993 8.52409C12.6188 8.52409 11.4473 9.00534 10.4848 9.96784C9.52227 10.9303 9.04102 12.1019 9.04102 13.4824C9.04102 14.863 9.52227 16.0345 10.4848 16.997C11.4473 17.9595 12.6188 18.4408 13.9993 18.4408ZM13.9993 16.7491C13.0855 16.7491 12.3125 16.4331 11.6806 15.8012C11.0487 15.1692 10.7327 14.3963 10.7327 13.4824C10.7327 12.5685 11.0487 11.7956 11.6806 11.1637C12.3125 10.5317 13.0855 10.2158 13.9993 10.2158C14.9132 10.2158 15.6862 10.5317 16.3181 11.1637C16.95 11.7956 17.266 12.5685 17.266 13.4824C17.266 14.3963 16.95 15.1692 16.3181 15.8012C15.6862 16.4331 14.9132 16.7491 13.9993 16.7491ZM13.9993 22.2324C11.1605 22.2324 8.59379 21.4255 6.29935 19.8116C4.0049 18.1977 2.29379 16.088 1.16602 13.4824C2.29379 10.8769 4.0049 8.76714 6.29935 7.15325C8.59379 5.53937 11.1605 4.73242 13.9993 4.73242C16.8382 4.73242 19.4049 5.53937 21.6993 7.15325C23.9938 8.76714 25.7049 10.8769 26.8327 13.4824C25.7049 16.088 23.9938 18.1977 21.6993 19.8116C19.4049 21.4255 16.8382 22.2324 13.9993 22.2324ZM13.9993 20.4824C16.3521 20.4824 18.5153 19.8456 20.4889 18.572C22.4625 17.2984 23.9646 15.6019 24.9952 13.4824C23.9646 11.363 22.4625 9.66645 20.4889 8.39284C18.5153 7.11923 16.3521 6.48242 13.9993 6.48242C11.6466 6.48242 9.48338 7.11923 7.50977 8.39284C5.53615 9.66645 4.02435 11.363 2.97435 13.4824C4.02435 15.6019 5.53615 17.2984 7.50977 18.572C9.48338 19.8456 11.6466 20.4824 13.9993 20.4824Z" fill="#514EDD"/>
</svg>
