<svg width="56" height="50" viewBox="0 0 56 50" fill="none" xmlns="http://www.w3.org/2000/svg">
<path d="M0.603516 14.0319C0.852105 12.9182 1.01449 11.7744 1.3651 10.6938C3.42135 4.35122 9.89043 0.277505 16.4874 1.09368C19.6469 1.4504 22.5957 2.85528 24.8633 5.08406L27.4038 7.54121C28.253 6.69055 29.062 5.85713 29.8955 5.04957C31.6198 3.37123 33.5812 2.01763 35.8702 1.23594C41.4743 -0.675184 46.4518 0.550528 50.7554 4.46618C54.0604 7.46937 55.7703 11.2758 55.6568 15.7863C55.5648 19.4692 54.0546 22.606 51.6952 25.3707C51.4739 25.6294 51.2454 25.8794 50.9854 26.1711C52.7628 27.8178 53.5804 29.7922 52.7872 32.166C51.9941 34.5398 50.2467 35.7109 47.758 35.9365C47.6818 37.3734 47.1832 38.6423 46.1457 39.6725C45.1403 40.6874 43.7736 41.2625 42.3451 41.2718C42.0807 43.7434 40.8736 45.541 38.4567 46.281C36.0139 47.0282 34.0352 46.1258 32.3785 44.2118C31.2548 45.3499 30.1857 46.4807 29.0649 47.5599C28.1655 48.4117 26.9959 48.9213 25.7596 49C24.5234 49.0788 23.2986 48.7217 22.2984 47.9909C21.6918 47.5553 21.187 46.9932 20.8188 46.3435C20.4506 45.6938 20.2279 44.9718 20.1659 44.2276C20.153 44.104 20.13 43.9819 20.1085 43.8396C17.0406 43.4876 15.2933 41.7848 14.8665 38.7012C12.977 38.5575 11.4797 37.7298 10.5658 36.0313C9.65191 34.3329 9.77116 32.6588 10.7698 30.8497C10.6105 30.7696 10.4598 30.6733 10.3201 30.5624C8.55697 28.9056 6.79095 27.2574 5.04507 25.5776C2.60509 23.2849 1.06498 20.1954 0.702656 16.8669C0.683976 16.7103 0.636565 16.558 0.603516 16.4042V14.0319ZM24.9352 21.2165C24.8707 21.2471 24.8087 21.2827 24.7498 21.3229C21.0597 25.0091 17.3745 28.7001 13.694 32.3959C13.426 32.7038 13.2555 33.0844 13.204 33.4894C13.0905 34.2337 13.5173 34.9019 14.1926 35.2381C14.5288 35.4157 14.9136 35.4791 15.289 35.4187C15.6643 35.3583 16.0098 35.1774 16.2733 34.9033C17.2792 33.9277 18.2548 32.9304 19.2449 31.9433C20.0941 31.0955 21.0425 31.0049 21.7494 31.7004C22.4564 32.3959 22.376 33.3744 21.544 34.2079C20.6445 35.1088 19.7406 36.004 18.8454 36.9093C17.9243 37.8419 17.8956 39.1207 18.7649 39.9714C19.6098 40.7976 20.8686 40.743 21.7825 39.8277C22.6964 38.9124 23.6175 37.9597 24.5702 37.0645C24.8522 36.7974 25.1988 36.6083 25.576 36.5156C25.905 36.4492 26.2467 36.494 26.5474 36.6431C26.8481 36.7921 27.0908 37.0369 27.2371 37.3389C27.3937 37.6444 27.4493 37.9917 27.3958 38.3308C27.3423 38.6698 27.1826 38.9832 26.9397 39.2256C25.9899 40.2013 25.0142 41.154 24.0557 42.1225C23.1347 43.0536 23.103 44.3311 23.9724 45.1846C24.8072 46.0037 26.0832 45.9491 26.9899 45.0409C27.957 44.081 28.9068 43.1039 29.8868 42.1584C30.1642 41.8912 30.1929 41.6857 30.0392 41.3293C29.5584 40.2176 29.4704 38.9753 29.7895 37.8069C30.1086 36.6385 30.816 35.6135 31.7951 34.9005C32.1917 34.6131 32.6343 34.3846 33.0567 34.1288C31.8166 32.0683 31.6959 29.9703 33.0811 28.0032C34.6747 25.7386 36.9249 25.1767 39.533 25.9915C41.0547 21.7927 45.9589 21.0455 48.6891 23.8274C48.7911 23.7355 48.9004 23.6478 48.9981 23.5487C51.1017 21.3688 52.2513 18.7737 52.3476 15.7389C52.6263 7.06703 43.828 1.15979 35.8932 4.6616C33.3441 5.78672 31.6643 7.91482 29.6339 9.84893C29.7989 9.95119 29.9564 10.065 30.1052 10.1895C31.6773 11.7088 33.2464 13.2315 34.8126 14.7575C37.1534 17.0451 37.2267 20.7423 34.9851 23.0127C32.686 25.3362 29.0376 25.3348 26.6954 23.0127C26.1134 22.4279 25.5286 21.8244 24.9352 21.2223V21.2165ZM12.9453 28.6311C13.1293 28.4127 13.2471 28.2518 13.385 28.1124C16.3988 25.0958 19.4163 22.0811 22.4377 19.0683C23.8632 17.6501 25.8965 17.6644 27.3305 19.0683C27.8665 19.5957 28.3939 20.1345 28.9284 20.6633C30.078 21.7956 31.6586 21.8301 32.709 20.7495C33.7148 19.7221 33.6602 18.1401 32.548 17.0552C29.2014 13.789 25.8692 10.5085 22.4895 7.284C19.9547 4.86708 16.8854 3.84398 13.4181 4.33541C9.11735 4.94467 6.08112 7.33142 4.56228 11.385C3.04344 15.4386 3.72741 19.2451 6.59984 22.4624C8.52821 24.6436 10.7669 26.5447 12.9453 28.6369V28.6311ZM42.0002 38.0373C43.2087 37.9985 43.8682 37.566 44.2605 36.7599C44.6614 35.9221 44.5637 35.0844 43.9185 34.4191C42.29 32.736 40.6327 31.0782 38.9467 29.4459C38.0845 28.6081 36.8042 28.69 35.9593 29.5508C35.7607 29.7457 35.6026 29.978 35.4942 30.2344C35.3859 30.4907 35.3294 30.766 35.3281 31.0443C35.3267 31.3226 35.3806 31.5984 35.4865 31.8558C35.5923 32.1132 35.7481 32.3471 35.9449 32.5439C37.5514 34.1762 39.1608 35.8072 40.8147 37.3907C41.1883 37.7528 41.7516 37.9123 42.0002 38.043V38.0373ZM45.0393 25.3923C43.8193 25.4354 43.1526 25.8693 42.7776 26.6855C42.3896 27.529 42.5074 28.3509 43.1497 29.0248C44.1384 30.0604 45.1504 31.0739 46.186 32.0654C46.3875 32.264 46.6268 32.4202 46.8897 32.5248C47.1526 32.6294 47.4338 32.6802 47.7167 32.6743C47.9996 32.6684 48.2785 32.6059 48.5368 32.4905C48.7951 32.375 49.0277 32.209 49.2208 32.0022C49.4217 31.8085 49.5818 31.5764 49.6914 31.3198C49.8011 31.0631 49.8581 30.7871 49.8592 30.508C49.8602 30.2289 49.8053 29.9525 49.6977 29.695C49.59 29.4375 49.4317 29.2043 49.2323 29.009C48.2508 27.9902 47.2665 26.9715 46.2147 26.0202C45.8397 25.6825 45.2793 25.5273 45.0393 25.4052V25.3923ZM36.6246 43.3209C37.8086 43.262 38.4826 42.8323 38.8562 42.019C39.2298 41.2057 39.1249 40.391 38.5099 39.7199C37.8431 39.0015 37.1433 38.3003 36.4234 37.6292C35.5613 36.8317 34.314 36.8921 33.472 37.7284C33.0804 38.1057 32.8495 38.6196 32.8273 39.1629C32.8051 39.7063 32.9933 40.2372 33.3527 40.6453C34.0198 41.3936 34.733 42.0996 35.488 42.7591C35.8573 43.0781 36.3832 43.2088 36.6246 43.3209Z" fill="black"/>
</svg>
