<svg width="75" height="75" viewBox="0 0 75 75" fill="none" xmlns="http://www.w3.org/2000/svg">
<g id="Group 39" filter="url(#filter0_d_1_952)">
<path id="Vector" d="M38.6874 0.418403L38.7113 0.423032C39.0921 0.496909 39.4803 0.563664 39.8715 0.630936C40.7323 0.778951 41.6076 0.92947 42.451 1.16386L42.4515 1.164C46.4656 2.28864 50.0211 4.65397 52.6095 7.92162C55.1979 11.1893 56.6866 15.1918 56.8626 19.3568C57.0385 23.5217 55.8928 27.6355 53.5892 31.1099C51.2869 34.5823 47.9459 37.2381 44.0438 38.6979C43.8794 38.7695 43.71 38.8292 43.5371 38.8765C43.206 38.9707 42.8511 38.9315 42.5485 38.7673C42.246 38.6031 42.0198 38.3271 41.9182 37.9982C41.9181 37.9977 41.9179 37.9972 41.9177 37.9966L42.1567 37.9232C41.9871 37.399 42.2093 36.8799 42.759 36.6169L38.6874 0.418403ZM38.6874 0.418403L38.6631 0.418458L35.6196 0.42524L35.5828 0.425322L35.5475 0.436032C35.401 0.480545 35.2517 0.515575 35.1007 0.540894C33.0739 0.73699 31.092 1.25915 29.2317 2.08722C16.0871 7.91817 13.2761 25.1078 23.8778 34.8282C25.7957 36.5866 28.0521 37.9354 30.509 38.7919C30.9058 38.9319 31.2928 38.9465 31.625 38.8199C31.9616 38.6916 32.2146 38.4282 32.3521 38.0685C32.4903 37.7071 32.4739 37.3434 32.305 37.0246C32.1387 36.7111 31.8383 36.4654 31.4508 36.3018L31.4504 36.3016C31.3969 36.2791 31.3407 36.2592 31.293 36.2423C31.2813 36.2381 31.2702 36.2342 31.2597 36.2304C31.2018 36.2096 31.1558 36.1917 31.1151 36.1707C30.6927 35.9517 30.27 35.7302 29.8467 35.5084C29.0739 35.1035 28.2991 34.6975 27.5203 34.3037L27.5188 34.303C27.1084 34.0989 26.86 33.8531 26.7149 33.5592C26.5674 33.2603 26.5133 32.8848 26.5424 32.3994C26.7391 29.1673 28.2212 26.8528 31.0836 25.3672L31.0915 25.3631L31.0991 25.3584C31.2144 25.2877 31.348 25.2528 31.4831 25.2581C31.6182 25.2634 31.7486 25.3087 31.858 25.3882L31.8675 25.3952L31.8777 25.4012C35.3713 27.4682 38.9076 27.4664 42.4027 25.4012L42.412 25.3957L42.4208 25.3895C42.5314 25.3105 42.6624 25.2652 42.7982 25.259C42.934 25.2527 43.0686 25.2859 43.186 25.3544L43.1943 25.3592L43.2029 25.3634C46.0075 26.7239 47.9861 29.5575 47.7038 33.4287C47.6885 33.4986 47.6597 33.5649 47.6192 33.6241C47.5766 33.6861 47.5219 33.7389 47.4583 33.7792C46.1742 34.5422 44.8777 35.2835 43.5753 36.0152L38.6874 0.418403ZM48.4303 7.32725L48.4304 7.32728C55.9056 13.9804 55.7051 24.6985 50.2916 31.0046C49.7111 27.5736 47.9428 24.9899 44.9162 23.2108C46.8574 20.6637 47.5818 17.8138 46.8744 14.6562C46.3817 12.4044 45.103 10.4017 43.2677 9.00701C41.463 7.60111 39.2302 6.85749 36.9428 6.90056C34.6554 6.94363 32.4522 7.77082 30.7016 9.24376C29.6754 10.0887 28.8321 11.1339 28.2232 12.3155C27.6144 13.497 27.2526 14.7902 27.1599 16.1162C26.9387 18.7597 27.7226 21.1148 29.3531 23.206C26.3323 24.9874 24.5507 27.5689 23.9882 30.9552C19.8497 26.5092 17.9078 17.1824 23.5687 9.75881L23.5687 9.75872C29.5373 1.92432 41.0954 0.796338 48.4303 7.32725ZM33.0365 10.8322C34.2407 10.0211 35.6582 9.58496 37.11 9.57899C39.0577 9.58127 40.9257 10.353 42.307 11.7261C43.6884 13.0991 44.4714 14.9624 44.4854 16.91C44.4882 18.3619 44.0606 19.782 43.2567 20.991C42.4527 22.2002 41.3083 23.144 39.9681 23.703C38.6279 24.2621 37.1521 24.4114 35.7272 24.132C34.3022 23.8527 32.992 23.1572 31.9621 22.1335C30.9322 21.1098 30.2289 19.8038 29.9409 18.3806C29.653 16.9573 29.7934 15.4806 30.3444 14.1371C30.8953 12.7936 31.8322 11.6435 33.0365 10.8322Z" fill="black" stroke="black" stroke-width="0.5"/>
<path id="Vector_2" d="M69.9069 43.4257L69.8539 43.4931C69.7475 43.6285 69.6406 43.7732 69.5311 43.9215C69.2774 44.2648 69.01 44.6267 68.7046 44.9334L68.7045 44.9335C67.5514 46.0899 66.3701 47.2168 65.1799 48.3323L65.1799 48.3323C65.0331 48.4698 64.9535 48.5808 64.9133 48.6921C64.8741 48.8009 64.8631 48.9366 64.9031 49.14C65.1577 50.4323 65.3754 51.7325 65.5923 53.0281C65.6651 53.4629 65.7378 53.8972 65.8118 54.3305C65.9383 55.0696 65.8537 55.7393 65.5497 56.2557C65.2416 56.7789 64.7244 57.1165 64.0505 57.2091L64.0394 57.2106L64.0394 57.2104C63.5153 57.2585 62.9882 57.1588 62.518 56.9226C60.9773 56.1718 59.4474 55.3924 57.9519 54.5408M69.9069 43.4257L58.0754 54.3234M69.9069 43.4257L69.9073 43.3399L69.9124 42.3322L69.9127 42.2805L69.8923 42.2329C69.653 41.6718 69.301 41.2781 68.8574 41.0116C68.4188 40.7481 67.9046 40.6172 67.3506 40.5557M69.9069 43.4257L67.3229 40.8041M57.9519 54.5408C57.9518 54.5407 57.9518 54.5407 57.9517 54.5406L58.0754 54.3234M57.9519 54.5408C57.952 54.5408 57.9522 54.5409 57.9523 54.541L58.0754 54.3234M57.9519 54.5408C57.6629 54.3774 57.4307 54.3045 57.2121 54.3011C56.9945 54.2977 56.7623 54.3629 56.4728 54.5259L56.4726 54.5261C55.2599 55.2073 54.0182 55.8399 52.7822 56.4696C52.4737 56.6268 52.1655 56.7838 51.8582 56.9413L51.8581 56.9413C51.5157 57.1167 51.1784 57.1939 50.8623 57.1472C50.5428 57.1 50.2738 56.9303 50.066 56.6666M58.0754 54.3234C57.4545 53.9722 56.9795 53.9536 56.3501 54.3081C55.1424 54.9866 53.9064 55.6163 52.6708 56.2457C52.3618 56.4032 52.0527 56.5606 51.7441 56.7188C51.1215 57.0378 50.6075 56.9529 50.2597 56.5085M50.066 56.6666C50.0672 56.668 50.0683 56.6693 50.0695 56.6707L50.2597 56.5085M50.066 56.6666C49.9387 56.516 49.8475 56.3382 49.7995 56.1469C49.7511 55.9538 49.7479 55.7522 49.7903 55.5577C49.8327 55.3632 49.9194 55.1812 50.0437 55.0257L50.2389 55.1819M50.066 56.6666C50.065 56.6653 50.0639 56.6639 50.0628 56.6625L50.2597 56.5085M50.2597 56.5085C50.1556 56.3863 50.0811 56.2418 50.042 56.0861C50.003 55.9304 50.0004 55.7678 50.0346 55.6109C50.0687 55.4541 50.1387 55.3073 50.2389 55.1819M52.8723 39.5504C53.6832 37.9953 54.4676 36.4255 55.2253 34.841C55.6376 33.9792 56.1872 33.3277 57.2153 33.3345M52.8723 39.5504L52.6564 39.4245C52.6554 39.4261 52.6545 39.4277 52.6536 39.4293M52.8723 39.5504L52.6507 39.4348C52.6516 39.433 52.6526 39.4311 52.6536 39.4293M52.8723 39.5504C52.7989 39.6763 52.7011 39.7862 52.5845 39.8736C52.468 39.961 52.3351 40.0242 52.1937 40.0594M52.6536 39.4293C53.4621 37.8785 54.2442 36.3132 54.9998 34.7331L54.9998 34.7331C55.2124 34.2887 55.4712 33.8742 55.8275 33.5715C56.1905 33.2631 56.6427 33.0809 57.2161 33.0845M52.6536 39.4293C52.5973 39.5243 52.5229 39.6073 52.4345 39.6736C52.3474 39.7389 52.2484 39.7867 52.1431 39.8143M57.2161 33.0845C57.2158 33.0845 57.2156 33.0845 57.2153 33.0845V33.3345M57.2161 33.0845C57.2164 33.0845 57.2167 33.0845 57.2169 33.0845L57.2153 33.3345M57.2161 33.0845C57.7748 33.0847 58.2167 33.2645 58.5719 33.567C58.9207 33.8641 59.1749 34.2698 59.3834 34.7061L59.3835 34.7063C59.7265 35.4259 60.0855 36.1377 60.4459 36.8525C60.4664 36.893 60.4868 36.9336 60.5073 36.9742C60.8878 37.7289 61.2689 38.4871 61.6302 39.2558L61.6343 39.2645L61.6377 39.2734C61.7043 39.449 61.8209 39.6012 61.9731 39.7113C62.1253 39.8214 62.3063 39.8844 62.4939 39.8927L62.5033 39.8932L62.5126 39.8943C63.2714 39.985 64.0277 40.0966 64.7799 40.2076C64.833 40.2154 64.8862 40.2232 64.9394 40.2311C65.7454 40.3499 66.5472 40.4663 67.3506 40.5557M57.2153 33.3345C58.2145 33.3345 58.754 33.969 59.1578 34.8139L62.4829 40.1425C63.2381 40.2329 63.9912 40.3439 64.7441 40.455C65.6029 40.5817 66.4615 40.7083 67.3229 40.8041M67.3506 40.5557C67.3506 40.5557 67.3506 40.5557 67.3505 40.5557L67.3229 40.8041M67.3506 40.5557L67.3229 40.8041M52.1431 39.8143C52.1469 39.8137 52.1507 39.8131 52.1545 39.8125L52.1937 40.0594M52.1431 39.8143C51.1243 39.9761 50.1139 40.1218 49.1014 40.2677C48.2199 40.3948 47.3368 40.5222 46.445 40.6606L46.8675 43.2792C46.077 43.3916 45.3761 42.9467 45.2688 42.1825L45.5164 42.1477C45.4248 41.5014 45.7725 41.0179 46.4834 40.9076C47.3655 40.7707 48.249 40.6433 49.1325 40.5158C50.1538 40.3686 51.175 40.2213 52.1937 40.0594M52.1431 39.8143C52.1398 39.8151 52.1366 39.816 52.1333 39.8168L52.1937 40.0594M50.6126 54.8883C52.6246 53.8111 54.6452 52.7457 56.6928 51.7396C57.005 51.587 57.541 51.6616 57.8803 51.8245C59.0674 52.4044 60.2383 53.0194 61.4087 53.6341C61.8474 53.8645 62.2861 54.0949 62.7255 54.3234M50.6126 54.8883L50.5071 54.6617C50.5048 54.6627 50.5026 54.6638 50.5004 54.6648M50.6126 54.8883L50.4946 54.6679C50.4965 54.6669 50.4985 54.6658 50.5004 54.6648M50.6126 54.8883C50.4671 54.9561 50.3392 55.0566 50.2389 55.1819M50.5004 54.6648C52.5112 53.5882 54.5329 52.5223 56.5826 51.5153L56.583 51.5151C56.7974 51.4102 57.062 51.3928 57.2994 51.4148C57.5415 51.4372 57.7896 51.5036 57.9885 51.5991L57.9901 51.5998C59.1807 52.1815 60.3565 52.7991 61.528 53.4144C61.9658 53.6443 62.403 53.8739 62.8401 54.1013M50.5004 54.6648C50.3227 54.7488 50.1665 54.8722 50.0437 55.0257L50.2389 55.1819M62.8401 54.1013C62.84 54.1012 62.8399 54.1011 62.8397 54.101L62.7255 54.3234M62.8401 54.1013C62.8404 54.1014 62.8406 54.1015 62.8408 54.1016L62.7255 54.3234M62.8401 54.1013C62.9135 54.1389 62.9865 54.1747 63.0673 54.2135M62.7255 54.3234C62.8405 54.3825 62.9575 54.4383 63.1001 54.5063C63.1061 54.5092 63.112 54.512 63.1181 54.5149C63.1011 54.4139 63.0841 54.3135 63.0673 54.2135M63.0673 54.2135C63.11 54.234 63.1548 54.2554 63.2029 54.2784C63.2466 54.2992 63.293 54.3213 63.343 54.3453C63.1416 53.1494 62.9521 52.0255 62.7611 50.9016C62.728 50.7039 62.6978 50.5054 62.6676 50.3069C62.5895 49.7934 62.5113 49.2797 62.3828 48.7793C62.2047 48.0854 62.432 47.6104 62.9257 47.149M63.0673 54.2135C62.8767 53.0821 62.6963 52.0128 62.5147 50.9435L62.5146 50.9429C62.4801 50.7369 62.4491 50.5336 62.4185 50.3324C62.3411 49.8236 62.2658 49.3289 62.1407 48.8415C62.0411 48.4537 62.0512 48.109 62.1675 47.7911C62.2822 47.4776 62.4922 47.2119 62.7549 46.9664M62.7549 46.9664C62.7548 46.9665 62.7547 46.9666 62.7546 46.9667L62.9257 47.149M62.7549 46.9664C62.7549 46.9664 62.7549 46.9663 62.755 46.9663L62.9257 47.149M62.7549 46.9664C63.5968 46.1764 64.4246 45.3734 65.2539 44.569C65.6699 44.1654 66.0862 43.7615 66.5049 43.3587L66.6783 43.5389C66.2612 43.9401 65.8456 44.3432 65.43 44.7464C64.5997 45.5519 63.7691 46.3576 62.9257 47.149M57.6798 36.7302C57.6262 36.6235 57.5726 36.5169 57.519 36.4102L61.1308 42.1155C60.537 42.0527 60.1774 41.7559 59.9229 41.2333C59.1866 39.7275 58.4311 38.2246 57.6798 36.7302Z" fill="black" stroke="black" stroke-width="0.5"/>
<path id="Vector_3" d="M50.3603 46.2444L50.3958 45.997C49.5983 45.8826 48.8017 45.7669 48.0049 45.6511C46.4392 45.4236 44.8729 45.196 43.2984 44.9789C43.0947 44.9503 42.9506 44.9034 42.8376 44.8288C42.7273 44.756 42.6271 44.6437 42.5343 44.4503C42.0169 43.3687 41.4742 42.2828 40.9326 41.199C40.4593 40.2521 39.9869 39.3068 39.5329 38.3676C39.3025 37.8868 39.0219 37.4505 38.6399 37.1329C38.2516 36.8102 37.7713 36.621 37.167 36.6163C36.5626 36.6116 36.0781 36.7941 35.685 37.1116C35.2978 37.4243 35.0117 37.8576 34.779 38.3363C34.3601 39.1966 33.9276 40.0577 33.4944 40.9205C32.9202 42.0639 32.3446 43.2101 31.7973 44.3608L31.7971 44.3612C31.6898 44.5878 31.5738 44.723 31.4426 44.8116C31.3093 44.9016 31.1391 44.9579 30.8985 44.9907C29.7931 45.1409 28.6897 45.3014 27.588 45.4616L27.4729 45.4783C26.3325 45.6442 25.1938 45.8094 24.0536 45.9627C23.539 46.0313 23.0735 46.1765 22.691 46.448C22.3043 46.7225 22.0196 47.1143 21.8503 47.6443C21.6807 48.1756 21.6872 48.6712 21.843 49.1307C21.9974 49.5861 22.2929 49.9902 22.6764 50.3531C23.426 51.0644 24.1725 51.7835 24.9195 52.503C25.8507 53.3999 26.7827 54.2977 27.7225 55.182L27.7295 55.1886L27.737 55.1947C27.8444 55.2812 27.924 55.3973 27.9661 55.5286C28.0082 55.66 28.0108 55.8008 27.9737 55.9336L27.9713 55.942L27.9696 55.9505C27.8344 56.6067 27.7223 57.2657 27.6114 57.9183C27.5878 58.057 27.5643 58.1954 27.5406 58.3334C27.3415 59.485 27.1448 60.6361 26.9585 61.7257C26.8717 62.2334 26.7872 62.7278 26.7059 63.2026L26.7028 63.2205L26.7023 63.2386C26.6766 64.2618 27.1195 65.084 27.8054 65.5392C28.4913 65.9945 29.3959 66.0659 30.252 65.6364L30.2531 65.6359C32.4057 64.5438 34.5447 63.4318 36.6702 62.3001L36.6707 62.2998C36.8697 62.1931 37.0218 62.1555 37.1599 62.1588C37.2998 62.1622 37.4521 62.2082 37.6508 62.3149L37.6512 62.3152C38.7443 62.8991 39.8515 63.4734 40.9572 64.0468C41.9007 64.5361 42.843 65.0248 43.7745 65.5185C44.23 65.7617 44.6994 65.9236 45.1785 65.9365C45.6632 65.9494 46.1404 65.8092 46.604 65.4771C47.0693 65.1438 47.3523 64.7311 47.4909 64.2644C47.628 63.8031 47.6197 63.3043 47.5308 62.7995L47.5308 62.7994C47.3904 62.0036 47.2519 61.2065 47.1134 60.4089C46.8539 58.9154 46.5942 57.42 46.3209 55.9287L46.3192 55.9197L46.3169 55.9108C46.2847 55.7868 46.289 55.6561 46.3294 55.5346C46.3699 55.4131 46.4447 55.3058 46.5448 55.2259L46.5531 55.2193L46.5608 55.212C48.1188 53.7355 49.6607 52.2429 51.2021 50.7508C51.3939 50.5651 51.5858 50.3794 51.7777 50.1937C52.1406 49.8435 52.3912 49.4443 52.5063 49.0033C52.6216 48.5612 52.5966 48.0928 52.4325 47.6124L52.4325 47.6123C52.1062 46.6582 51.3764 46.1355 50.3953 45.9969L50.3603 46.2444ZM50.3603 46.2444C51.2611 46.3717 51.9041 46.8399 52.1959 47.6932L42.3088 44.5581C42.5243 45.0077 42.8177 45.1638 43.2639 45.2266C44.8376 45.4435 46.4024 45.6709 47.9677 45.8983C48.7647 46.0141 49.5618 46.13 50.3603 46.2444ZM49.7173 48.3277L49.6796 48.5749C49.6805 48.575 49.6813 48.5751 49.6822 48.5752C49.6875 48.576 49.6939 48.5769 49.7023 48.5793C49.6109 48.6365 49.5221 48.6981 49.4363 48.7638L49.4256 48.772L49.4158 48.7813C48.727 49.4384 48.0434 50.0975 47.3606 50.756C46.3239 51.7556 45.2888 52.7536 44.2395 53.7406L44.2393 53.7407C43.9569 54.0068 43.7467 54.2882 43.6317 54.6174C43.5161 54.9481 43.5042 55.3048 43.5816 55.7087L43.5817 55.7089C43.9304 57.5201 44.2375 59.3391 44.5452 61.1613C44.6456 61.7559 44.746 62.3509 44.848 62.9461L44.8481 62.9467C44.8545 62.9836 44.859 63.0196 44.8625 63.0578L41.9794 61.564C41.606 61.3703 41.2327 61.1791 40.8602 60.9881C39.9568 60.5253 39.0576 60.0645 38.1701 59.5767C37.865 59.3877 37.5131 59.2875 37.1541 59.2875C36.7955 59.2875 36.444 59.3874 36.1391 59.5759C34.5854 60.4077 33.0184 61.2153 31.4486 62.0243C30.8427 62.3366 30.2364 62.649 29.6303 62.9632C29.566 62.9963 29.5019 63.0274 29.4323 63.0604C29.4947 62.6955 29.5562 62.3351 29.6172 61.9782C29.8117 60.8386 30.0002 59.7343 30.1912 58.6307L30.1912 58.6306C30.2067 58.5407 30.2223 58.4508 30.2378 58.3608C30.402 57.4103 30.566 56.4612 30.7468 55.5152C30.8091 55.1893 30.7924 54.8899 30.6918 54.6105C30.5918 54.333 30.4151 54.092 30.1832 53.872C29.0767 52.8189 27.9778 51.7585 26.8781 50.6973C26.2279 50.07 25.5775 49.4423 24.9251 48.8158L24.925 48.8157C24.8458 48.7398 24.7616 48.668 24.6632 48.5881C24.776 48.5705 24.8861 48.5534 24.9939 48.5366C25.5618 48.4481 26.0661 48.3696 26.5721 48.297L26.5724 48.2969C26.9112 48.248 27.2503 48.1987 27.5895 48.1494C29.1076 47.9289 30.6288 47.7079 32.1502 47.5128C32.5088 47.485 32.8528 47.3584 33.1439 47.1469C33.4346 46.9357 33.6612 46.6481 33.7985 46.3161C34.6474 44.5681 35.5195 42.8317 36.4179 41.0427C36.6579 40.565 36.8997 40.0835 37.1435 39.597C37.1862 39.6752 37.2247 39.7476 37.2617 39.8223L37.262 39.8229C37.5585 40.4172 37.8569 41.0099 38.1552 41.6022C38.9307 43.1423 39.7048 44.6795 40.4388 46.2357L40.439 46.2361C40.6299 46.639 40.8696 46.9413 41.1824 47.1549C41.4935 47.3675 41.8581 47.4792 42.2773 47.5324L42.3088 47.2844M49.7173 48.3277L49.682 48.5752C49.0252 48.4813 48.369 48.3861 47.7131 48.2908C45.9012 48.0278 44.0913 47.7651 42.277 47.5324L42.3088 47.2844M49.7173 48.3277C49.7828 48.3377 49.8475 48.3593 49.9576 48.4348L42.3088 47.2844M49.7173 48.3277C49.0618 48.234 48.4064 48.1389 47.7509 48.0437C45.9383 47.7806 44.1254 47.5174 42.3088 47.2844" fill="black" stroke="black" stroke-width="0.5"/>
<path id="Vector_4" d="M14.7478 41.0364L14.7479 41.0363C15.2908 39.8436 15.8849 38.6769 16.505 37.459C16.6967 37.0825 16.8909 36.7011 17.0868 36.3126C17.1111 36.3611 17.1354 36.4095 17.1596 36.4578C18.0003 38.1359 18.799 39.7299 19.5854 41.3361L19.5855 41.3362C19.7241 41.619 19.8961 41.8577 20.1282 42.0368C20.3619 42.217 20.6409 42.325 20.9745 42.3697L20.9747 42.3697C22.6537 42.5931 24.3335 42.8382 26.0144 43.0836C26.4257 43.1436 26.8371 43.2036 27.2486 43.2634C27.6885 43.3275 28.088 43.2867 28.4044 43.1174C28.7295 42.9435 28.9402 42.6476 29.0145 42.2646L29.0146 42.2642C29.0924 41.8603 29.0248 41.4833 28.7842 41.1876C28.5481 40.8973 28.1747 40.722 27.7129 40.6517C25.8599 40.3632 23.9915 40.0812 22.1223 39.8382L22.1223 39.8378L22.1083 39.8368C22.0027 39.8291 21.9016 39.7908 21.8172 39.7268C21.7329 39.6627 21.669 39.5755 21.6332 39.4758L21.6285 39.4627L21.6223 39.4501C21.2632 38.7181 20.9009 37.9925 20.5392 37.2679C20.0904 36.369 19.6424 35.4716 19.202 34.5654C18.7809 33.6961 18.0988 33.0854 17.0709 33.0893C16.5678 33.0911 16.1475 33.2382 15.7999 33.501C15.4562 33.7608 15.1964 34.1241 14.993 34.541L14.9929 34.5411C14.6518 35.2408 14.2989 35.9428 13.9452 36.6464C13.4895 37.5526 13.0326 38.4614 12.5983 39.3711L12.5948 39.3783L12.5919 39.3857C12.5366 39.5234 12.4432 39.6426 12.3228 39.7293C12.2024 39.8161 12.0597 39.8668 11.9116 39.8756L11.9025 39.8762L11.8935 39.8773C10.9303 40.0051 9.95945 40.1453 8.99046 40.2853C8.15342 40.4062 7.31776 40.5269 6.48956 40.6392L6.52315 40.8869L6.49001 40.6391C6.02535 40.7012 5.60263 40.8388 5.25417 41.0909C4.90256 41.3452 4.64217 41.705 4.48729 42.1832C4.32371 42.6824 4.3394 43.1378 4.49326 43.5552C4.64487 43.9665 4.92462 44.3249 5.26323 44.6475L5.26338 44.6476C5.9224 45.2744 6.57563 45.9065 7.22951 46.5394L7.26772 46.5764C7.90864 47.1967 8.55031 47.8178 9.19739 48.434L9.20505 48.4413L9.21329 48.448C9.29626 48.5146 9.35817 48.6038 9.3915 48.7049C9.42485 48.8059 9.4282 48.9145 9.40117 49.0174L9.39889 49.026L9.39723 49.0349C9.15276 50.3396 8.92854 51.6523 8.70461 52.9634C8.61893 53.465 8.5333 53.9664 8.44658 54.467C8.36737 54.9226 8.36938 55.3699 8.50202 55.7819C8.63606 56.1981 8.89859 56.5623 9.31252 56.8534C9.72426 57.1429 10.149 57.2721 10.583 57.2655C11.0125 57.259 11.4336 57.1199 11.8436 56.9019C12.5167 56.5441 13.1996 56.1915 13.8841 55.838C14.8001 55.365 15.719 54.8905 16.6212 54.4002L16.6216 54.4C16.8174 54.2931 16.9681 54.2554 17.1052 54.2589C17.2444 54.2624 17.3967 54.3089 17.5952 54.417L17.5954 54.4171C19.1561 55.2662 20.7348 56.0811 22.317 56.8849C22.6282 57.0575 22.9791 57.1459 23.335 57.1415L23.335 57.1417L23.3454 57.1411C23.6303 57.1256 23.9005 57.0096 24.1078 56.8136C24.313 56.6196 24.4435 56.3599 24.4768 56.0797C24.5375 55.7368 24.4847 55.4338 24.3303 55.1762C24.1779 54.9218 23.9395 54.7331 23.6667 54.5902L23.6663 54.5899C23.1244 54.3073 22.5823 54.026 22.0405 53.7449C20.6888 53.0435 19.3388 52.3429 17.9966 51.6247C17.7135 51.459 17.3904 51.3739 17.0623 51.3787C16.7353 51.3836 16.4159 51.4775 16.1385 51.6503C15.018 52.2549 13.888 52.8406 12.756 53.4274C12.314 53.6565 11.8717 53.8858 11.4295 54.1164C11.3569 54.154 11.284 54.1903 11.2052 54.2287C11.2653 53.8714 11.3244 53.5177 11.383 53.167C11.6375 51.6446 11.8825 50.1791 12.1541 48.7187C12.2245 48.4196 12.2115 48.107 12.1165 47.8147C12.0216 47.5226 11.8483 47.2621 11.6158 47.0615C10.5267 46.0242 9.44486 44.9751 8.36395 43.9271C8.2772 43.8429 8.19046 43.7588 8.10372 43.6747C7.9374 43.5126 7.77641 43.3479 7.59831 43.163C7.94429 43.1126 8.28732 43.0619 8.62806 43.0117C10.0083 42.808 11.3508 42.6099 12.6992 42.4482C13.1573 42.3939 13.5647 42.2815 13.9135 42.0554C14.2656 41.8271 14.5384 41.4957 14.7478 41.0364Z" fill="black" stroke="black" stroke-width="0.5"/>
<path id="Vector_5" d="M31.4368 51.9826H31.4186C30.9852 51.9826 30.6174 51.8834 30.3443 51.6763C30.0659 51.4652 29.9114 51.1612 29.8755 50.8079L31.4368 51.9826ZM31.4368 51.9826L31.4547 51.98M31.4368 51.9826L31.4547 51.98M31.4547 51.98C31.7518 51.9367 32.0575 51.8935 32.3697 51.8494C33.371 51.708 34.4391 51.5571 35.5016 51.3609L35.5149 51.3585L35.5279 51.3546C35.9278 51.235 36.265 50.9635 36.4672 50.5983L36.4672 50.5984L36.4682 50.5965C37.0342 49.5536 37.556 48.4869 38.0712 47.4335C38.138 47.2969 38.2046 47.1606 38.2713 47.0246L38.2715 47.0242C38.4565 46.6447 38.5095 46.2602 38.413 45.916C38.3156 45.5683 38.0735 45.291 37.7266 45.1196C37.3807 44.9486 37.017 44.923 36.6826 45.0577C36.3528 45.1907 36.0817 45.4674 35.8872 45.845C35.4321 46.7279 34.9826 47.6149 34.5583 48.5146L34.5538 48.5242L34.5502 48.534C34.5092 48.6441 34.4367 48.7396 34.3419 48.8088C34.247 48.8779 34.1338 48.9176 34.0165 48.9229L34.0078 48.9233L33.9992 48.9243C33.009 49.0385 32.0232 49.1798 31.0421 49.3345L31.0416 49.3346M31.4547 51.98L31.0416 49.3346M31.0416 49.3346C30.66 49.3956 30.3449 49.5693 30.1355 49.8363M31.0416 49.3346L30.1355 49.8363M30.1355 49.8363C29.926 50.1035 29.8384 50.4439 29.8755 50.8078L30.1355 49.8363Z" fill="black" stroke="black" stroke-width="0.5"/>
</g>
<defs>
<filter id="filter0_d_1_952" x="0.121094" y="0.168335" width="74.0419" height="74.0189" filterUnits="userSpaceOnUse" color-interpolation-filters="sRGB">
<feFlood flood-opacity="0" result="BackgroundImageFix"/>
<feColorMatrix in="SourceAlpha" type="matrix" values="0 0 0 0 0 0 0 0 0 0 0 0 0 0 0 0 0 0 127 0" result="hardAlpha"/>
<feOffset dy="4"/>
<feGaussianBlur stdDeviation="2"/>
<feComposite in2="hardAlpha" operator="out"/>
<feColorMatrix type="matrix" values="0 0 0 0 0 0 0 0 0 0 0 0 0 0 0 0 0 0 0.25 0"/>
<feBlend mode="normal" in2="BackgroundImageFix" result="effect1_dropShadow_1_952"/>
<feBlend mode="normal" in="SourceGraphic" in2="effect1_dropShadow_1_952" result="shape"/>
</filter>
</defs>
</svg>
